<svg width="238" height="66" viewBox="0 0 238 66" fill="none" xmlns="http://www.w3.org/2000/svg">
<path d="M27.7004 14.9563L27.3793 11.2863C26.1238 10.8691 24.9467 10.2296 24.3794 8.84351C24.0418 7.95719 24.0073 6.9829 24.2814 6.07546C24.7777 4.13858 27.0321 2.52596 29.2121 2.53851C30.9696 2.54862 32.2609 3.60591 32.6659 5.3658C33.3706 8.42731 32.7039 9.98506 30.0361 11.3114C30.0559 12.0517 30.0772 12.8436 30.1047 13.8814C30.7941 13.2529 31.3052 12.7648 31.8401 12.3046C32.5907 11.6147 33.3759 10.964 34.1923 10.355C36.8424 8.514 39.5689 8.58314 42.3366 10.1308C43.596 10.835 44.8693 11.5169 46.1588 12.1627C48.4827 13.3285 51.0289 13.9733 53.6216 14.0524C54.2981 14.0821 54.972 14.1644 55.6361 14.2988C58.0285 14.762 58.8 16.8224 57.2151 18.6611C55.0193 21.2081 52.1525 22.6615 48.9123 23.269C45.6077 23.8647 42.2289 23.9194 38.9052 23.431C36.5963 23.1118 34.2791 22.8545 31.9646 22.5794C31.5105 22.5253 31.0515 22.5158 30.5393 22.4821L31.535 33.8635C33.2001 33.0453 34.6954 32.3677 35.6543 30.9474C35.9958 30.4121 36.2171 29.8078 36.3025 29.1767C36.4573 28.1284 36.1377 27.8312 35.1713 27.3739C34.3735 26.9881 33.6216 26.5119 32.9303 25.9546C32.6711 25.7589 32.4846 25.4812 32.4006 25.166C32.3168 24.8508 32.3403 24.5164 32.4675 24.2166C32.559 23.9032 32.7575 23.6327 33.0281 23.4532C33.2988 23.2738 33.6237 23.1971 33.9456 23.2366C34.679 23.3162 35.5202 23.4323 36.0887 23.8474C40.3123 26.9327 40.0203 31.5171 36.9189 34.3602C36.2971 34.9311 35.6005 35.4217 34.8447 36.0238C35.2335 36.1178 35.5461 36.1966 35.8612 36.2686C37.4041 36.5826 38.8663 37.2151 40.1558 38.1264C42.3076 39.7143 42.7164 41.9475 41.2547 44.1852C39.9602 46.1674 38.1152 47.5111 36.051 48.5753C35.4599 48.8797 34.8523 49.1516 34.0954 49.5134C34.6953 49.8708 35.1684 50.1204 35.6077 50.4207C37.2518 51.544 38.3433 52.9707 38.0616 55.1189C37.9872 55.6925 37.7915 56.243 37.4879 56.7334C37.1845 57.2237 36.7801 57.643 36.3023 57.962C35.7695 58.3493 35.2995 58.824 34.7226 59.3275C35.4917 59.6044 36.1048 59.7714 36.6703 60.0442C37.1748 60.2884 37.655 60.665 37.4497 61.341C37.2504 61.9978 36.6806 62.1302 36.1068 62.0034C35.1232 61.7855 34.1574 61.488 33.1221 61.2077C32.8759 62.0391 33.0069 63.2236 31.8928 63.3192C31.3775 63.3643 30.8043 62.7323 30.1176 62.3244C29.8004 62.4718 29.2826 62.7499 28.7379 62.9555C28.2868 63.1257 27.7712 63.1697 27.5006 62.6638C27.2356 62.1681 27.5296 61.7413 27.9044 61.4325C28.455 60.9786 29.0436 60.5715 29.484 60.2432C28.2828 59.6895 27.0253 59.1889 25.8418 58.5483C22.7865 56.8954 22.924 53.768 24.3862 51.6537C24.6035 51.3395 24.8484 51.0447 25.1718 50.6218C22.5546 49.4253 20.2495 47.898 19.9384 44.7455C19.6367 41.6874 21.1327 39.4286 23.5698 37.5852C23.1994 37.332 22.9215 37.1689 22.6738 36.9679C22.0926 36.5412 21.5428 36.0726 21.0286 35.5654C19.2585 33.6394 18.913 31.4695 19.9924 29.056C20.8869 27.0538 22.3675 25.6546 24.2237 24.6088C25.0196 24.1605 25.682 24.2619 26.1753 24.8439C26.3025 24.9901 26.3993 25.1606 26.4599 25.3452C26.5205 25.5297 26.5437 25.7247 26.5281 25.9184C26.5126 26.1121 26.4587 26.3006 26.3694 26.4727C26.2802 26.6448 26.1575 26.797 26.0087 26.9203C25.4069 27.4573 24.7407 27.916 24.0257 28.286C23.5294 28.5247 23.0971 28.88 22.7655 29.3223C22.4339 29.7646 22.2127 30.2809 22.1202 30.8278C22.0383 31.2038 22.0329 31.5928 22.1045 31.971C22.176 32.3495 22.3231 32.7093 22.5366 33.0286C23.6034 34.6586 25.2517 35.3433 27.037 35.6213C27.6655 35.7191 28.3823 35.236 29.1892 34.9762C28.9466 30.9724 28.7078 27.0285 28.4587 22.9155C27.987 22.9634 27.5183 23.0375 27.0546 23.1372C23.7024 24.0622 20.3526 24.9877 17.0113 25.9483C13.9791 26.8191 10.9332 27.5363 7.74288 27.1371C6.04509 26.9248 4.3987 26.5388 2.97158 25.5218C2.17241 24.9518 1.53086 24.2357 1.81717 23.1634C1.94139 22.6301 2.22071 22.1465 2.6192 21.7745C3.41571 21.1421 4.27552 20.5954 5.18479 20.1432C8.32537 18.5715 11.1765 16.6148 13.5802 14.0222C14.1007 13.4607 14.6577 12.9329 15.2068 12.3993C16.3811 11.257 17.7769 10.8328 19.4001 11.0208C21.8379 11.3026 23.8853 12.5057 25.9207 13.7458C26.4859 14.0896 27.0198 14.4909 27.7004 14.9563ZM30.2391 20.2397C32.4268 20.3818 34.4516 20.4734 36.4697 20.6532C39.8456 20.9564 43.209 21.2762 46.6059 20.8606C49.1393 20.5605 51.5502 19.5976 53.5987 18.0672C53.879 17.8226 54.1429 17.5589 54.3882 17.2782C53.3397 17.1516 52.4625 17.0938 51.6044 16.9338C47.9763 16.2572 44.6552 14.802 41.5321 12.8443C39.2017 11.3836 37.6438 11.4754 35.4815 13.1593C35.1441 13.417 34.8209 13.6929 34.5132 13.9859C33.2937 15.1689 32.1138 16.3951 30.8582 17.5372C30.3639 17.9865 30.1322 18.4289 30.2141 19.0839C30.2428 19.4688 30.2515 19.8548 30.2392 20.2404L30.2391 20.2397ZM28.2538 18.9182C27.2105 18.2681 26.3979 17.8235 25.6515 17.2853C23.9076 15.9952 21.981 14.978 19.9367 14.2678C18.4945 13.7834 17.2403 13.9788 16.1571 15.2177C13.1509 18.6555 9.51602 21.2584 5.4097 23.2083C5.00402 23.4404 4.61243 23.6966 4.23699 23.9756C5.10162 24.2702 5.68697 24.5116 6.2933 24.6688C8.9974 25.3708 11.6717 25.1017 14.3097 24.3283C17.56 23.3764 20.7914 22.3684 24.0409 21.4191C25.4522 21.0065 26.8868 20.6793 28.3744 20.2972L28.2538 18.9182ZM29.4167 38.9212C27.5407 39.0883 24.7041 40.7623 23.8101 42.1819C22.8232 43.7487 22.9681 45.5679 24.4457 46.4706C25.7178 47.2479 27.2 47.7147 28.6377 48.1617C29.4112 48.4014 29.8988 47.8781 29.8724 47.0423C29.8114 45.1282 29.7198 43.216 29.6191 41.3031C29.5785 40.5064 29.486 39.7134 29.4167 38.9212ZM32.7705 46.6913C33.6831 46.2516 34.5378 45.8947 35.339 45.4422C36.6391 44.7079 37.8155 43.8009 38.6713 42.5442C39.2693 41.6656 39.2243 41.1874 38.4024 40.5825C36.5485 39.218 34.4268 38.8881 32.0932 38.9493L32.7705 46.6913ZM29.8926 51.8617C28.3194 51.7936 26.6705 53.1224 26.5134 54.3976C26.4717 54.6739 26.5104 54.9569 26.6249 55.2114C26.7393 55.4664 26.9246 55.6823 27.1582 55.8335C28.0442 56.466 28.9479 57.0733 29.9936 57.7939C29.9582 55.714 29.926 53.8249 29.8927 51.8628L29.8926 51.8617ZM30.2127 7.28413C30.0814 5.64909 29.4517 5.17421 27.682 5.21134C26.8826 5.22807 26.3728 5.68448 26.2921 7.11722C26.227 8.26976 27.2244 9.01818 28.6668 8.98437C29.9914 8.95455 30.3192 8.59513 30.2128 7.28515L30.2127 7.28413ZM32.7608 52.7303C32.7493 53.5886 32.7042 54.4356 32.7351 55.2798C32.7674 56.1381 32.8755 56.9931 32.9615 57.9759C33.9493 57.2842 34.3384 56.4292 34.6011 55.4733C35.0468 53.8567 34.5739 53.1097 32.7609 52.7315L32.7608 52.7303Z" fill="#131D64"/>
<path d="M237.661 42.1354H231.447C231.364 41.4974 231.194 40.9215 230.937 40.4078C230.68 39.8941 230.34 39.4549 229.918 39.0903C229.495 38.7258 228.994 38.4482 228.414 38.2576C227.842 38.0587 227.208 37.9593 226.512 37.9593C225.278 37.9593 224.213 38.2617 223.318 38.8666C222.431 39.4715 221.748 40.3457 221.267 41.4891C220.795 42.6326 220.559 44.0164 220.559 45.6404C220.559 47.3307 220.799 48.7477 221.28 49.8911C221.769 51.0263 222.452 51.8839 223.33 52.4639C224.217 53.0356 225.265 53.3215 226.475 53.3215C227.154 53.3215 227.772 53.2345 228.327 53.0605C228.89 52.8865 229.383 52.6338 229.806 52.3023C230.237 51.9626 230.589 51.5525 230.862 51.0719C231.144 50.583 231.339 50.032 231.447 49.4188L237.661 49.4561C237.553 50.583 237.226 51.6933 236.679 52.7871C236.141 53.8808 235.399 54.8793 234.454 55.7825C233.51 56.6773 232.358 57.3899 230.999 57.9202C229.649 58.4505 228.099 58.7157 226.351 58.7157C224.047 58.7157 221.984 58.2103 220.161 57.1994C218.346 56.1802 216.913 54.697 215.861 52.7498C214.808 50.8026 214.282 48.4328 214.282 45.6404C214.282 42.8397 214.817 40.4658 215.885 38.5186C216.954 36.5714 218.4 35.0924 220.223 34.0815C222.046 33.0706 224.089 32.5651 226.351 32.5651C227.892 32.5651 229.317 32.7806 230.626 33.2114C231.935 33.634 233.087 34.2555 234.082 35.0758C235.076 35.8878 235.884 36.8863 236.505 38.0712C237.127 39.2561 237.512 40.6108 237.661 42.1354Z" fill="#131D64"/>
<path d="M207.814 45.6404C207.814 48.4411 207.275 50.815 206.198 52.7622C205.121 54.7094 203.662 56.1885 201.823 57.1994C199.992 58.2103 197.937 58.7157 195.658 58.7157C193.371 58.7157 191.312 58.2061 189.481 57.1869C187.65 56.1678 186.195 54.6887 185.118 52.7498C184.049 50.8026 183.515 48.4328 183.515 45.6404C183.515 42.8397 184.049 40.4658 185.118 38.5186C186.195 36.5714 187.65 35.0924 189.481 34.0815C191.312 33.0706 193.371 32.5651 195.658 32.5651C197.937 32.5651 199.992 33.0706 201.823 34.0815C203.662 35.0924 205.121 36.5714 206.198 38.5186C207.275 40.4658 207.814 42.8397 207.814 45.6404ZM201.525 45.6404C201.525 43.9832 201.288 42.5829 200.816 41.4394C200.352 40.2959 199.681 39.4301 198.803 38.8418C197.933 38.2535 196.884 37.9593 195.658 37.9593C194.44 37.9593 193.392 38.2535 192.514 38.8418C191.635 39.4301 190.96 40.2959 190.488 41.4394C190.024 42.5829 189.792 43.9832 189.792 45.6404C189.792 47.2976 190.024 48.6979 190.488 49.8414C190.96 50.9849 191.635 51.8508 192.514 52.4391C193.392 53.0274 194.44 53.3215 195.658 53.3215C196.884 53.3215 197.933 53.0274 198.803 52.4391C199.681 51.8508 200.352 50.9849 200.816 49.8414C201.288 48.6979 201.525 47.2976 201.525 45.6404Z" fill="#131D64"/>
<path d="M164.481 58.3677H155.072V32.9131H164.468C167.062 32.9131 169.295 33.4227 171.168 34.4419C173.048 35.4528 174.499 36.9111 175.518 38.8169C176.537 40.7144 177.046 42.9848 177.046 45.628C177.046 48.2795 176.537 50.5582 175.518 52.4639C174.507 54.3697 173.061 55.8322 171.18 56.8514C169.299 57.8622 167.066 58.3677 164.481 58.3677ZM161.224 53.1227H164.245C165.67 53.1227 166.875 52.8824 167.861 52.4018C168.856 51.9129 169.606 51.1216 170.111 50.0278C170.625 48.9258 170.882 47.4592 170.882 45.628C170.882 43.7968 170.625 42.3385 170.111 41.253C169.597 40.1592 168.839 39.3721 167.837 38.8915C166.842 38.4026 165.616 38.1582 164.158 38.1582H161.224V53.1227Z" fill="#131D64"/>
<path d="M138.151 58.7654C136.56 58.7654 135.155 58.3635 133.937 57.5598C132.719 56.7478 131.766 55.6043 131.079 54.1294C130.391 52.6462 130.047 50.8937 130.047 48.872C130.047 46.8667 130.391 45.1267 131.079 43.6518C131.766 42.1769 132.723 41.0376 133.95 40.2338C135.176 39.4301 136.593 39.0282 138.2 39.0282C139.443 39.0282 140.425 39.2354 141.146 39.6497C141.875 40.0557 142.43 40.5197 142.812 41.0417C143.201 41.5554 143.503 41.978 143.719 42.3095H143.967V32.9131H146.901V58.3677H144.067V55.4345H143.719C143.503 55.7825 143.197 56.2216 142.799 56.7519C142.401 57.2739 141.834 57.7421 141.096 58.1564C140.359 58.5624 139.377 58.7654 138.151 58.7654ZM138.548 56.1305C139.725 56.1305 140.719 55.8239 141.531 55.2107C142.343 54.5893 142.961 53.7317 143.383 52.6379C143.806 51.5359 144.017 50.264 144.017 48.8222C144.017 47.397 143.81 46.15 143.396 45.0811C142.981 44.0039 142.368 43.1671 141.556 42.5705C140.744 41.9656 139.742 41.6631 138.548 41.6631C137.306 41.6631 136.27 41.9822 135.441 42.6202C134.621 43.2499 134.004 44.1075 133.589 45.193C133.183 46.2702 132.98 47.4799 132.98 48.8222C132.98 50.1811 133.187 51.4158 133.602 52.5261C134.024 53.6281 134.646 54.5064 135.466 55.161C136.295 55.8073 137.322 56.1305 138.548 56.1305Z" fill="black"/>
<path d="M122.419 32.9131V58.3677H119.486V32.9131H122.419Z" fill="black"/>
<path d="M103.314 58.3677V39.2768H106.148V42.1603H106.346C106.694 41.2157 107.324 40.4492 108.236 39.8609C109.147 39.2726 110.175 38.9785 111.318 38.9785C111.533 38.9785 111.803 38.9826 112.126 38.9909C112.449 38.9992 112.693 39.0116 112.859 39.0282V42.0112C112.76 41.9863 112.532 41.949 112.176 41.8993C111.828 41.8413 111.459 41.8123 111.069 41.8123C110.141 41.8123 109.313 42.007 108.584 42.3965C107.863 42.7776 107.291 43.3079 106.868 43.9874C106.454 44.6585 106.247 45.425 106.247 46.2867V58.3677H103.314Z" fill="black"/>
<path d="M87.0356 58.7654C85.3122 58.7654 83.8 58.3553 82.4991 57.5349C81.2064 56.7146 80.1956 55.567 79.4664 54.0921C78.7455 52.6172 78.3851 50.8937 78.3851 48.9217C78.3851 46.933 78.7455 45.1971 79.4664 43.7139C80.1956 42.2307 81.2064 41.079 82.4991 40.2587C83.8 39.4384 85.3122 39.0282 87.0356 39.0282C88.7591 39.0282 90.2672 39.4384 91.5598 40.2587C92.8607 41.079 93.8716 42.2307 94.5925 43.7139C95.3216 45.1971 95.6862 46.933 95.6862 48.9217C95.6862 50.8937 95.3216 52.6172 94.5925 54.0921C93.8716 55.567 92.8607 56.7146 91.5598 57.5349C90.2672 58.3553 88.7591 58.7654 87.0356 58.7654ZM87.0356 56.1305C88.3448 56.1305 89.422 55.7949 90.2672 55.1237C91.1123 54.4526 91.7379 53.5701 92.144 52.4763C92.55 51.3826 92.753 50.1977 92.753 48.9217C92.753 47.6456 92.55 46.4566 92.144 45.3545C91.7379 44.2525 91.1123 43.3618 90.2672 42.6823C89.422 42.0029 88.3448 41.6631 87.0356 41.6631C85.7265 41.6631 84.6493 42.0029 83.8041 42.6823C82.9589 43.3618 82.3333 44.2525 81.9273 45.3545C81.5213 46.4566 81.3183 47.6456 81.3183 48.9217C81.3183 50.1977 81.5213 51.3826 81.9273 52.4763C82.3333 53.5701 82.9589 54.4526 83.8041 55.1237C84.6493 55.7949 85.7265 56.1305 87.0356 56.1305Z" fill="black"/>
<path d="M49.706 58.3677L42.7457 32.9131H45.8778L51.1974 53.6447H51.446L56.865 32.9131H60.3452L65.7642 53.6447H66.0128L71.3324 32.9131H74.4645L67.5042 58.3677H64.3224L58.7045 38.0836H58.5057L52.8878 58.3677H49.706Z" fill="black"/>
</svg>
