<svg width="420" height="145" viewBox="0 0 420 145" fill="none" xmlns="http://www.w3.org/2000/svg">
<mask id="mask0_198_56" style="mask-type:luminance" maskUnits="userSpaceOnUse" x="0" y="0" width="109" height="144">
<path d="M99.3704 -3.47022e-05L0 10.8538L9.30388 143.619L108.674 132.765L99.3704 -3.47022e-05Z" fill="white"/>
</mask>
<g mask="url(#mask0_198_56)">
<path d="M48.4756 32.6762L47.9137 24.6581C45.7166 23.7466 43.6567 22.3493 42.6639 19.321C42.0731 17.3846 42.0126 15.256 42.4924 13.2734C43.3609 9.04173 47.306 5.51848 51.1212 5.54588C54.1967 5.56799 56.4566 7.87794 57.1653 11.7229C58.3985 18.4117 57.2317 21.8151 52.5632 24.7128C52.5977 26.3303 52.635 28.0604 52.6832 30.3278C53.8896 28.9547 54.7839 27.8882 55.7201 26.8829C57.0336 25.3756 58.4077 23.9539 59.8365 22.6233C64.474 18.6011 69.2454 18.7522 74.089 22.1335C76.2929 23.672 78.5212 25.1617 80.7778 26.5727C84.8446 29.1199 89.3005 30.5285 93.8377 30.7015C95.0216 30.7662 96.2009 30.946 97.3631 31.2397C101.55 32.2518 102.9 36.7533 100.126 40.7704C96.2838 46.3352 91.2668 49.5106 85.5964 50.8378C79.8134 52.1392 73.9005 52.2588 68.084 51.1918C64.0434 50.4943 59.9883 49.9323 55.9379 49.3312C55.1434 49.213 54.34 49.1922 53.4437 49.1185L55.1862 73.9846C58.1001 72.1969 60.7169 70.7165 62.395 67.6135C62.9926 66.444 63.3798 65.1237 63.5292 63.7448C63.8002 61.4547 63.2409 60.8052 61.5497 59.8062C60.1536 58.9631 58.8378 57.9228 57.6279 56.7053C57.1744 56.2778 56.848 55.671 56.7009 54.9823C56.5543 54.2936 56.5954 53.5631 56.8181 52.9081C56.9782 52.2233 57.3256 51.6323 57.7991 51.2403C58.2728 50.8483 58.8414 50.6807 59.4047 50.7669C60.6881 50.9409 62.1603 51.1945 63.1551 52.1014C70.5465 58.8421 70.0355 68.8581 64.608 75.0698C63.5199 76.317 62.3007 77.3888 60.9781 78.7044C61.6585 78.9097 62.2056 79.0819 62.7569 79.2393C65.4572 79.9253 68.0159 81.3071 70.2726 83.2982C74.0383 86.7674 74.7536 91.6464 72.1956 96.5354C69.9303 100.866 66.7015 103.802 63.0891 106.127C62.0548 106.792 60.9915 107.386 59.6668 108.176C60.7167 108.957 61.5447 109.503 62.3133 110.159C65.1906 112.613 67.1008 115.73 66.6077 120.423C66.4774 121.676 66.1351 122.879 65.6037 123.951C65.0728 125.022 64.3651 125.938 63.5289 126.635C62.5965 127.481 61.774 128.518 60.7645 129.618C62.1103 130.223 63.1833 130.588 64.1729 131.184C65.0557 131.718 65.8962 132.54 65.5369 134.017C65.1881 135.452 64.191 135.742 63.1869 135.464C61.4656 134.988 59.7753 134.338 57.9636 133.726C57.5327 135.542 57.762 138.13 55.8123 138.339C54.9106 138.438 53.9075 137.057 52.7057 136.166C52.1506 136.488 51.2445 137.096 50.2913 137.545C49.5019 137.917 48.5996 138.013 48.126 136.907C47.6622 135.824 48.1768 134.892 48.8326 134.217C49.7962 133.226 50.8262 132.336 51.5969 131.619C49.4948 130.409 47.2941 129.315 45.223 127.916C39.8763 124.305 40.117 117.472 42.6758 112.852C43.0561 112.166 43.4845 111.522 44.0507 110.598C39.4704 107.984 35.4365 104.647 34.892 97.7596C34.3642 91.0783 36.9821 86.1432 41.2471 82.1157C40.5988 81.5625 40.1125 81.2061 39.6791 80.7671C38.662 79.8348 37.6997 78.811 36.7999 77.703C33.7022 73.495 33.0977 68.7542 34.9866 63.4812C36.5521 59.1067 39.1431 56.0498 42.3914 53.7651C43.7842 52.7856 44.9435 53.0071 45.8066 54.2785C46.0292 54.598 46.1986 54.9704 46.3047 55.3738C46.4108 55.777 46.4514 56.203 46.4242 56.6262C46.397 57.0494 46.3026 57.4613 46.1464 57.8373C45.9902 58.2133 45.7755 58.5458 45.5151 58.8152C44.462 59.9883 43.2962 60.9906 42.045 61.7989C41.1763 62.3204 40.4199 63.0966 39.8396 64.063C39.2593 65.0294 38.8721 66.1573 38.7103 67.3522C38.5669 68.1738 38.5574 69.0236 38.6827 69.8498C38.808 70.6767 39.0653 71.4628 39.439 72.1606C41.3059 75.7217 44.1903 77.2176 47.3147 77.8249C48.4146 78.0387 49.6689 76.9833 51.081 76.4156C50.6565 67.668 50.2386 59.0515 49.8026 50.0655C48.9771 50.1701 48.1569 50.3319 47.3455 50.5499C41.4792 52.5707 35.617 54.5927 29.7697 56.6914C24.4633 58.5941 19.1331 60.161 13.55 59.2888C10.5788 58.8249 7.69765 57.9816 5.20019 55.7597C3.80164 54.5143 2.67893 52.9499 3.17997 50.6071C3.39736 49.4418 3.88616 48.3853 4.58352 47.5726C5.97742 46.191 7.48208 44.9966 9.0733 44.0085C14.5693 40.5747 19.5588 36.2997 23.7652 30.6353C24.6762 29.4086 25.6509 28.2555 26.6118 27.0896C28.6668 24.5941 31.1094 23.6672 33.9501 24.0779C38.2162 24.6937 41.7991 27.3222 45.3612 30.0315C46.3503 30.7827 47.2846 31.6594 48.4756 32.6762ZM52.9184 44.2193C56.7468 44.5299 60.2903 44.73 63.822 45.1228C69.7297 45.7853 75.6157 46.484 81.5603 45.5759C85.9936 44.9203 90.2127 42.8164 93.7977 39.473C94.2882 38.9384 94.75 38.3623 95.1793 37.749C93.3444 37.4724 91.8093 37.3463 90.3076 36.9966C83.9584 35.5183 78.1466 32.3392 72.681 28.0619C68.6029 24.8705 65.8765 25.0713 62.0925 28.7502C61.5021 29.3131 60.9365 29.9158 60.398 30.556C58.2639 33.1407 56.1992 35.8198 54.0018 38.315C53.1368 39.2965 52.7313 40.2631 52.8746 41.6943C52.9249 42.535 52.94 43.3783 52.9185 44.2209L52.9184 44.2193ZM49.444 41.3321C47.6183 39.9119 46.1963 38.9405 44.89 37.7645C41.8382 34.9461 38.4666 32.7236 34.8892 31.1721C32.3653 30.1138 30.1704 30.5405 28.2748 33.2473C23.014 40.7582 16.653 46.4451 9.46689 50.7051C8.75696 51.2122 8.07168 51.772 7.41466 52.3816C8.92776 53.0251 9.95212 53.5525 11.0132 53.8961C15.7454 55.4298 20.4254 54.8418 25.042 53.1522C30.7299 51.0724 36.3849 48.8702 42.0715 46.7961C44.5413 45.8948 47.0518 45.1798 49.6551 44.3449L49.444 41.3321ZM51.4791 85.0345C48.1961 85.3997 43.2321 89.0571 41.6675 92.1585C39.9405 95.5817 40.1942 99.5563 42.7799 101.528C45.006 103.227 47.5998 104.247 50.1158 105.223C51.4695 105.747 52.3228 104.604 52.2767 102.778C52.1699 98.5957 52.0096 94.418 51.8334 90.2386C51.7623 88.498 51.6004 86.7654 51.4791 85.0345ZM57.3483 102.011C58.9454 101.05 60.441 100.27 61.8432 99.2817C64.1183 97.6774 66.177 95.6958 67.6747 92.95C68.7212 91.0305 68.6424 89.9857 67.2041 88.6642C63.9599 85.683 60.2468 84.9624 56.163 85.0959L57.3483 102.011ZM52.3119 113.307C49.5588 113.158 46.6734 116.061 46.3984 118.847C46.3253 119.451 46.3931 120.069 46.5934 120.625C46.7937 121.182 47.1179 121.654 47.5268 121.985C49.0773 123.366 50.6587 124.693 52.4887 126.268C52.4267 121.723 52.3704 117.596 52.3121 113.309L52.3119 113.307ZM52.8721 15.9141C52.6423 12.3419 51.5404 11.3044 48.4434 11.3855C47.0445 11.422 46.1523 12.4192 46.0111 15.5494C45.8972 18.0675 47.6426 19.7027 50.1668 19.6288C52.4849 19.5636 53.0585 18.7784 52.8723 15.9163L52.8721 15.9141ZM57.3313 115.205C57.3112 117.08 57.2323 118.93 57.2863 120.775C57.3428 122.65 57.532 124.518 57.6825 126.665C59.4112 125.154 60.0922 123.286 60.5518 121.198C61.3318 117.666 60.5043 116.034 57.3314 115.207L57.3313 115.205Z" fill="white"/>
</g>
<path d="M86.0498 108.238L74.7145 66.7837H79.8154L88.4788 100.547H88.8836L97.7089 66.7837H103.376L112.202 100.547H112.607L121.27 66.7837H126.371L115.036 108.238H109.854L100.705 75.2042H100.381L91.2316 108.238H86.0498ZM146.844 108.886C144.037 108.886 141.574 108.218 139.456 106.882C137.351 105.546 135.704 103.677 134.517 101.275C133.343 98.8732 132.756 96.0664 132.756 92.8548C132.756 89.6161 133.343 86.7891 134.517 84.3736C135.704 81.9581 137.351 80.0824 139.456 78.7464C141.574 77.4105 144.037 76.7425 146.844 76.7425C149.651 76.7425 152.107 77.4105 154.212 78.7464C156.33 80.0824 157.977 81.9581 159.151 84.3736C160.338 86.7891 160.932 89.6161 160.932 92.8548C160.932 96.0664 160.338 98.8732 159.151 101.275C157.977 103.677 156.33 105.546 154.212 106.882C152.107 108.218 149.651 108.886 146.844 108.886ZM146.844 104.595C148.976 104.595 150.73 104.048 152.107 102.955C153.483 101.862 154.502 100.425 155.163 98.6438C155.824 96.8626 156.155 94.9329 156.155 92.8548C156.155 90.7766 155.824 88.8402 155.163 87.0455C154.502 85.2507 153.483 83.8001 152.107 82.6935C150.73 81.587 148.976 81.0337 146.844 81.0337C144.712 81.0337 142.957 81.587 141.581 82.6935C140.205 83.8001 139.186 85.2507 138.525 87.0455C137.863 88.8402 137.533 90.7766 137.533 92.8548C137.533 94.9329 137.863 96.8626 138.525 98.6438C139.186 100.425 140.205 101.862 141.581 102.955C142.957 104.048 144.712 104.595 146.844 104.595ZM173.354 108.238V77.1474H177.969V81.8434H178.293C178.86 80.305 179.885 79.0568 181.37 78.0987C182.854 77.1406 184.527 76.6616 186.389 76.6616C186.74 76.6616 187.179 76.6683 187.705 76.6818C188.231 76.6953 188.629 76.7156 188.899 76.7425V81.6005C188.737 81.56 188.366 81.4993 187.786 81.4183C187.219 81.3239 186.619 81.2766 185.985 81.2766C184.473 81.2766 183.124 81.5937 181.936 82.228C180.762 82.8487 179.831 83.7124 179.143 84.8189C178.468 85.9119 178.131 87.1602 178.131 88.5636V108.238H173.354ZM204.469 66.7837V108.238H199.692V66.7837H204.469ZM230.088 108.886C227.497 108.886 225.21 108.232 223.226 106.923C221.243 105.6 219.691 103.738 218.571 101.336C217.451 98.9205 216.891 96.0664 216.891 92.7738C216.891 89.5082 217.451 86.6744 218.571 84.2724C219.691 81.8704 221.25 80.0149 223.247 78.706C225.244 77.397 227.551 76.7425 230.169 76.7425C232.193 76.7425 233.793 77.0799 234.967 77.7546C236.154 78.4158 237.058 79.1715 237.679 80.0217C238.313 80.8583 238.806 81.5465 239.157 82.0863H239.561V66.7837H244.338V108.238H239.723V103.461H239.157C238.806 104.028 238.306 104.743 237.659 105.607C237.011 106.457 236.087 107.219 234.886 107.894C233.685 108.555 232.085 108.886 230.088 108.886ZM230.736 104.595C232.652 104.595 234.272 104.096 235.594 103.097C236.916 102.085 237.922 100.688 238.61 98.907C239.298 97.1122 239.642 95.0408 239.642 92.6928C239.642 90.3718 239.305 88.3409 238.63 86.6001C237.956 84.8459 236.957 83.483 235.635 82.5114C234.312 81.5263 232.679 81.0337 230.736 81.0337C228.712 81.0337 227.025 81.5533 225.676 82.5923C224.34 83.6179 223.334 85.0146 222.66 86.7823C221.998 88.5366 221.668 90.5067 221.668 92.6928C221.668 94.9059 222.005 96.9165 222.68 98.7248C223.368 100.52 224.38 101.95 225.716 103.016C227.066 104.069 228.739 104.595 230.736 104.595ZM272.969 108.238H257.646V66.7837H272.948C277.172 66.7837 280.809 67.6136 283.859 69.2734C286.922 70.9197 289.283 73.2947 290.943 76.3984C292.603 79.4886 293.433 83.1861 293.433 87.4908C293.433 91.8089 292.603 95.5199 290.943 98.6236C289.297 101.727 286.942 104.109 283.879 105.769C280.816 107.415 277.179 108.238 272.969 108.238ZM267.665 99.6964H272.584C274.905 99.6964 276.869 99.305 278.474 98.5224C280.094 97.7262 281.315 96.4375 282.138 94.6562C282.975 92.8615 283.393 90.473 283.393 87.4908C283.393 84.5085 282.975 82.1335 282.138 80.3658C281.301 78.5845 280.067 77.3026 278.434 76.5199C276.815 75.7237 274.817 75.3256 272.442 75.3256H267.665V99.6964ZM343.539 87.511C343.539 92.0721 342.662 95.9382 340.908 99.1094C339.154 102.281 336.779 104.689 333.783 106.336C330.801 107.982 327.454 108.805 323.743 108.805C320.019 108.805 316.665 107.975 313.683 106.315C310.701 104.656 308.333 102.247 306.578 99.0891C304.838 95.918 303.967 92.0586 303.967 87.511C303.967 82.9499 304.838 79.0838 306.578 75.9126C308.333 72.7415 310.701 70.3327 313.683 68.6864C316.665 67.0401 320.019 66.217 323.743 66.217C327.454 66.217 330.801 67.0401 333.783 68.6864C336.779 70.3327 339.154 72.7415 340.908 75.9126C342.662 79.0838 343.539 82.9499 343.539 87.511ZM333.297 87.511C333.297 84.8121 332.913 82.5316 332.143 80.6694C331.388 78.8072 330.295 77.397 328.864 76.4389C327.447 75.4808 325.74 75.0018 323.743 75.0018C321.76 75.0018 320.053 75.4808 318.622 76.4389C317.192 77.397 316.092 78.8072 315.323 80.6694C314.567 82.5316 314.189 84.8121 314.189 87.511C314.189 90.2099 314.567 92.4904 315.323 94.3526C316.092 96.2148 317.192 97.625 318.622 98.5831C320.053 99.5412 321.76 100.02 323.743 100.02C325.74 100.02 327.447 99.5412 328.864 98.5831C330.295 97.625 331.388 96.2148 332.143 94.3526C332.913 92.4904 333.297 90.2099 333.297 87.511ZM392.148 81.8029H382.027C381.892 80.7638 381.616 79.826 381.197 78.9893C380.779 78.1527 380.226 77.4375 379.538 76.8438C378.849 76.25 378.033 75.7979 377.088 75.4876C376.157 75.1637 375.125 75.0018 373.991 75.0018C371.981 75.0018 370.247 75.4943 368.789 76.4794C367.346 77.4645 366.232 78.8881 365.45 80.7504C364.68 82.6126 364.296 84.8661 364.296 87.511C364.296 90.2638 364.687 92.5714 365.47 94.4336C366.266 96.2823 367.379 97.679 368.81 98.6236C370.254 99.5547 371.961 100.02 373.931 100.02C375.037 100.02 376.043 99.8786 376.947 99.5952C377.864 99.3118 378.667 98.9002 379.355 98.3604C380.057 97.8072 380.631 97.1392 381.076 96.3565C381.535 95.5604 381.852 94.663 382.027 93.6644L392.148 93.7251C391.973 95.5604 391.44 97.3686 390.549 99.1499C389.672 100.931 388.464 102.557 386.926 104.028C385.387 105.485 383.512 106.646 381.299 107.51C379.099 108.373 376.576 108.805 373.728 108.805C369.977 108.805 366.617 107.982 363.648 106.336C360.693 104.676 358.358 102.26 356.645 99.0891C354.931 95.918 354.074 92.0586 354.074 87.511C354.074 82.9499 354.944 79.0838 356.685 75.9126C358.426 72.7415 360.781 70.3327 363.749 68.6864C366.718 67.0401 370.044 66.217 373.728 66.217C376.238 66.217 378.559 66.5678 380.691 67.2695C382.824 67.9577 384.699 68.9698 386.319 70.3058C387.938 71.6282 389.254 73.2543 390.266 75.1839C391.278 77.1136 391.905 79.32 392.148 81.8029Z" fill="white"/>
</svg>
