<svg width="54" height="84" viewBox="0 0 54 84" fill="none" xmlns="http://www.w3.org/2000/svg">
<g filter="url(#filter0_ddi_122_104)">
<path d="M13.7591 35.164C16.0578 35.3405 18.3039 34.8059 20.0001 33.719C21.4835 34.6696 23.3685 35.1972 25.373 35.1972C25.6603 35.1972 25.9523 35.1859 26.2404 35.164C30.0795 34.8706 33.1734 32.5862 33.5961 29.7328C33.891 27.7431 32.8758 25.764 30.88 24.4387C28.3413 22.7521 26.8855 20.4285 26.8855 18.0636V6.12605C26.8855 5.50419 26.2082 5 25.373 5H14.6269C13.7917 5 13.1144 5.50419 13.1144 6.12605V18.0636C13.1144 20.4283 11.6583 22.7521 9.11951 24.4387C7.12451 25.764 6.10886 27.7431 6.40342 29.7331C6.82654 32.5862 9.91963 34.8704 13.7591 35.164Z" fill="url(#paint0_linear_122_104)"/>
</g>
<g filter="url(#filter1_ddi_122_104)">
<path d="M34.9449 37.6469C34.9434 37.6368 34.9422 37.6272 34.9411 37.6216C34.7819 36.5848 33.5931 35.803 32.1759 35.803C31.4294 35.803 30.7253 36.0201 30.1933 36.4136C29.2185 37.1343 27.9461 37.5875 26.6106 37.6897C25.2172 37.7958 23.8389 37.5473 22.6871 36.9817C21.8908 36.5907 20.9613 36.3841 20.0001 36.3841C19.0386 36.3841 18.1095 36.5907 17.3135 36.9817C16.1614 37.547 14.7805 37.7964 13.3897 37.6897C12.0542 37.5875 10.7818 37.1343 9.80694 36.4136C9.27453 36.0201 8.57008 35.803 7.82403 35.803C6.40681 35.803 5.2176 36.585 5.055 37.6472C4.73019 39.8393 5.85777 42.0118 8.07133 43.4593C10.8956 45.3063 12.5155 47.8587 12.5155 50.463V63.8739C12.5155 64.4958 13.1927 65 14.028 65H25.9727C26.8079 65 27.4852 64.4958 27.4852 63.8739V50.463C27.4852 47.859 29.1051 45.3063 31.9293 43.4593C34.1425 42.0115 35.2701 39.8388 34.9449 37.6469Z" fill="url(#paint1_linear_122_104)"/>
</g>
<defs>
<filter id="filter0_ddi_122_104" x="1.35327" y="0" width="70" height="70" filterUnits="userSpaceOnUse" color-interpolation-filters="sRGB">
<feFlood flood-opacity="0" result="BackgroundImageFix"/>
<feColorMatrix in="SourceAlpha" type="matrix" values="0 0 0 0 0 0 0 0 0 0 0 0 0 0 0 0 0 0 127 0" result="hardAlpha"/>
<feOffset dx="2" dy="3"/>
<feGaussianBlur stdDeviation="2.5"/>
<feComposite in2="hardAlpha" operator="out"/>
<feColorMatrix type="matrix" values="0 0 0 0 0 0 0 0 0 0 0 0 0 0 0 0 0 0 0.25 0"/>
<feBlend mode="normal" in2="BackgroundImageFix" result="effect1_dropShadow_122_104"/>
<feColorMatrix in="SourceAlpha" type="matrix" values="0 0 0 0 0 0 0 0 0 0 0 0 0 0 0 0 0 0 127 0" result="hardAlpha"/>
<feOffset dx="7" dy="7"/>
<feGaussianBlur stdDeviation="6"/>
<feComposite in2="hardAlpha" operator="out"/>
<feColorMatrix type="matrix" values="0 0 0 0 0 0 0 0 0 0 0 0 0 0 0 0 0 0 0.25 0"/>
<feBlend mode="normal" in2="effect1_dropShadow_122_104" result="effect2_dropShadow_122_104"/>
<feBlend mode="normal" in="SourceGraphic" in2="effect2_dropShadow_122_104" result="shape"/>
<feColorMatrix in="SourceAlpha" type="matrix" values="0 0 0 0 0 0 0 0 0 0 0 0 0 0 0 0 0 0 127 0" result="hardAlpha"/>
<feOffset dx="-2" dy="-3"/>
<feGaussianBlur stdDeviation="2"/>
<feComposite in2="hardAlpha" operator="arithmetic" k2="-1" k3="1"/>
<feColorMatrix type="matrix" values="0 0 0 0 0 0 0 0 0 0 0 0 0 0 0 0 0 0 0.25 0"/>
<feBlend mode="normal" in2="shape" result="effect3_innerShadow_122_104"/>
</filter>
<filter id="filter1_ddi_122_104" x="0" y="30.803" width="54" height="53.197" filterUnits="userSpaceOnUse" color-interpolation-filters="sRGB">
<feFlood flood-opacity="0" result="BackgroundImageFix"/>
<feColorMatrix in="SourceAlpha" type="matrix" values="0 0 0 0 0 0 0 0 0 0 0 0 0 0 0 0 0 0 127 0" result="hardAlpha"/>
<feOffset dx="2" dy="3"/>
<feGaussianBlur stdDeviation="2.5"/>
<feComposite in2="hardAlpha" operator="out"/>
<feColorMatrix type="matrix" values="0 0 0 0 0 0 0 0 0 0 0 0 0 0 0 0 0 0 0.25 0"/>
<feBlend mode="normal" in2="BackgroundImageFix" result="effect1_dropShadow_122_104"/>
<feColorMatrix in="SourceAlpha" type="matrix" values="0 0 0 0 0 0 0 0 0 0 0 0 0 0 0 0 0 0 127 0" result="hardAlpha"/>
<feOffset dx="7" dy="7"/>
<feGaussianBlur stdDeviation="6"/>
<feComposite in2="hardAlpha" operator="out"/>
<feColorMatrix type="matrix" values="0 0 0 0 0 0 0 0 0 0 0 0 0 0 0 0 0 0 0.25 0"/>
<feBlend mode="normal" in2="effect1_dropShadow_122_104" result="effect2_dropShadow_122_104"/>
<feBlend mode="normal" in="SourceGraphic" in2="effect2_dropShadow_122_104" result="shape"/>
<feColorMatrix in="SourceAlpha" type="matrix" values="0 0 0 0 0 0 0 0 0 0 0 0 0 0 0 0 0 0 127 0" result="hardAlpha"/>
<feOffset dx="-2" dy="-3"/>
<feGaussianBlur stdDeviation="2"/>
<feComposite in2="hardAlpha" operator="arithmetic" k2="-1" k3="1"/>
<feColorMatrix type="matrix" values="0 0 0 0 0 0 0 0 0 0 0 0 0 0 0 0 0 0 0.25 0"/>
<feBlend mode="normal" in2="shape" result="effect3_innerShadow_122_104"/>
</filter>
<linearGradient id="paint0_linear_122_104" x1="19.9998" y1="5" x2="19.9998" y2="35.1972" gradientUnits="userSpaceOnUse">
<stop stop-color="#FE455E"/>
<stop offset="0.58" stop-color="#EE1D32"/>
</linearGradient>
<linearGradient id="paint1_linear_122_104" x1="20" y1="65" x2="20" y2="35.803" gradientUnits="userSpaceOnUse">
<stop stop-color="#FE455E"/>
<stop offset="1" stop-color="#EE1D32"/>
</linearGradient>
</defs>
</svg>
