<svg width="74" height="74" viewBox="0 0 74 74" fill="none" xmlns="http://www.w3.org/2000/svg">
<g filter="url(#filter0_ddi_115_35)">
<path d="M34.8441 5.00088C34.0846 5.01819 33.3494 5.2424 32.7883 5.76219C32.7318 5.81434 32.6812 5.86724 32.6312 5.92249L32.6093 5.9024C30.5237 8.32505 28.4366 11.375 27.2672 14.7823C25.9588 18.5942 25.7715 22.7705 27.9317 27.0483L25.949 27.8867C24.2775 24.5766 23.8683 21.27 24.2512 18.1651C23.2609 18.6984 22.3335 19.3597 21.4833 20.1223C18.8696 17.0018 15.6434 14.0744 12.5443 12.0005C12.3803 11.8509 12.1943 11.7167 11.9819 11.6061C11.5872 11.4007 11.1663 11.3005 10.7405 11.2823C10.6961 11.2804 10.6535 11.2789 10.6091 11.2791C10.5647 11.2791 10.5186 11.2808 10.4741 11.2823C9.85132 11.304 9.22735 11.4886 8.67021 11.77C7.65129 12.2846 6.73695 13.1346 6.04112 14.2211C5.3454 15.3078 4.98527 16.4504 5.00046 17.5105C5.01589 18.5708 5.4557 19.6542 6.50863 20.2024C6.55163 20.2246 6.59662 20.2425 6.6402 20.2623L6.62548 20.289C9.81521 22.0875 14.0295 24.4969 16.7476 27.5159C15.9785 29.9727 15.8319 32.5103 16.4409 34.7193C18.229 41.2068 23.7352 47.0943 29.6483 50.8193C32.605 52.6817 35.6547 54.0023 38.3208 54.6131C40.9868 55.2236 43.2137 55.0989 44.6197 54.329C47.7923 52.5925 49.9162 49.4521 51.1996 45.7231C50.4023 46.1517 49.5551 46.5054 48.6728 46.7783C44.4923 48.0716 39.5463 47.7115 35.396 45.703C31.2455 43.6946 27.9054 39.9618 27.1546 34.6724L29.3198 34.4153C29.9827 39.0843 32.8144 42.1922 36.4184 43.9362C40.0225 45.6803 44.412 45.9859 47.9718 44.8847C51.5316 43.7835 54.2431 41.3966 54.8698 37.521C55.3879 34.3166 54.4181 29.9841 50.9151 24.5503C48.6786 24.7832 46.3966 25.2308 44.2984 25.7859L43.6922 23.8688C45.1797 23.4753 46.7527 23.1346 48.3516 22.8771C48.6589 22.9006 48.9742 22.8796 49.2902 22.8001C49.4094 22.7702 49.5235 22.7328 49.6334 22.69C49.6371 22.6895 49.6407 22.6872 49.6444 22.6868C49.6438 22.686 49.6449 22.6842 49.6444 22.6834C50.6051 22.304 51.2145 21.4575 51.503 20.5427C51.8255 19.52 51.8182 18.328 51.4703 17.1096C51.1221 15.8914 50.4932 14.8505 49.6626 14.111C49.0398 13.556 48.2354 13.1486 47.3806 13.1022C47.1193 13.0883 46.8551 13.1091 46.588 13.1691L46.5771 13.1257C44.7033 13.7498 42.6355 14.5958 40.6178 15.7038C39.5724 16.9197 38.7525 18.1065 38.2224 19.2704C37.399 21.0786 37.2278 22.8098 37.9375 24.7674L35.867 25.3986C34.9953 22.9941 35.2237 20.6609 36.2068 18.5025C37.0744 16.5973 38.5122 14.8056 40.2563 13.0122L40.2381 12.9954C40.3108 12.9412 40.382 12.8847 40.4498 12.8218C41.3012 12.0335 41.4126 10.8865 41.1327 9.85312C40.8528 8.81973 40.1941 7.79339 39.2265 6.89753L39.2193 6.89411C38.2529 6.00093 37.142 5.38784 36.0205 5.12741C35.7396 5.06222 35.4517 5.0214 35.1624 5.00719C35.1082 5.00462 35.0523 5.00131 34.9981 5.00077C34.9473 5.00003 34.8953 4.99949 34.8447 5.00077L34.8441 5.00088ZM34.9207 6.99115C34.9628 6.99115 35.009 6.99115 35.0558 6.99435C35.1809 7.00333 35.3222 7.02727 35.483 7.06456C36.1269 7.21418 36.9511 7.63437 37.6704 8.30036C38.3895 8.96613 38.8471 9.73076 39.0105 10.334C39.1738 10.9375 39.0525 11.2721 38.8936 11.4194C38.7345 11.5669 38.3947 11.6727 37.7508 11.5231C37.1068 11.3735 36.2826 10.9501 35.5634 10.2841C34.8442 9.61833 34.3868 8.85371 34.2232 8.25045C34.0598 7.64698 34.1811 7.3157 34.34 7.16833C34.4446 7.07162 34.6257 6.99222 34.9207 6.99136V6.99115ZM10.598 13.2727C10.7253 13.2759 10.8272 13.3046 10.901 13.3429C11.0979 13.4455 11.2977 13.7174 11.3064 14.325C11.3152 14.9324 11.0823 15.768 10.5651 16.5756C10.048 17.3835 9.35997 17.9884 8.76498 18.2889C8.16998 18.5895 7.78602 18.5683 7.58913 18.466C7.39235 18.3634 7.19266 18.0915 7.1839 17.4839C7.17502 16.8764 7.40778 16.0374 7.92507 15.2297C8.44224 14.4222 9.13025 13.8205 9.72524 13.5199C10.0226 13.3696 10.2678 13.2993 10.4626 13.2794C10.5114 13.2745 10.5553 13.2718 10.5977 13.2728L10.598 13.2727ZM23.444 13.4097C21.925 13.4177 20.354 13.9961 19.4711 14.9192C20.2713 15.6825 21.0451 16.4629 21.7824 17.257C22.6992 16.6389 23.6826 16.1103 24.7258 15.6974C24.859 15.1855 25.0119 14.6807 25.1821 14.1846C25.2326 14.0377 25.2858 13.8929 25.3392 13.7471C24.7584 13.5141 24.1066 13.4064 23.4439 13.4098L23.444 13.4097ZM47.1789 15.0961C47.2107 15.0939 47.2455 15.0939 47.2811 15.0961C47.4945 15.111 47.7787 15.2258 48.1356 15.5438C48.6114 15.9677 49.0964 16.7087 49.3552 17.6142C49.614 18.5198 49.591 19.3914 49.4026 19.9888C49.2145 20.586 48.9273 20.8221 48.709 20.8768C48.4905 20.9318 48.1406 20.8667 47.6646 20.443C47.1888 20.0189 46.7038 19.2779 46.4451 18.3723C46.1861 17.4668 46.209 16.5952 46.3974 15.9978C46.5858 15.4006 46.873 15.1645 47.0912 15.1097C47.1186 15.1027 47.1471 15.0984 47.1789 15.0963V15.0961Z" fill="url(#paint0_linear_115_35)"/>
</g>
<defs>
<filter id="filter0_ddi_115_35" x="0" y="0" width="74" height="74" filterUnits="userSpaceOnUse" color-interpolation-filters="sRGB">
<feFlood flood-opacity="0" result="BackgroundImageFix"/>
<feColorMatrix in="SourceAlpha" type="matrix" values="0 0 0 0 0 0 0 0 0 0 0 0 0 0 0 0 0 0 127 0" result="hardAlpha"/>
<feOffset dx="2" dy="3"/>
<feGaussianBlur stdDeviation="2.5"/>
<feComposite in2="hardAlpha" operator="out"/>
<feColorMatrix type="matrix" values="0 0 0 0 0 0 0 0 0 0 0 0 0 0 0 0 0 0 0.25 0"/>
<feBlend mode="normal" in2="BackgroundImageFix" result="effect1_dropShadow_115_35"/>
<feColorMatrix in="SourceAlpha" type="matrix" values="0 0 0 0 0 0 0 0 0 0 0 0 0 0 0 0 0 0 127 0" result="hardAlpha"/>
<feOffset dx="7" dy="7"/>
<feGaussianBlur stdDeviation="6"/>
<feComposite in2="hardAlpha" operator="out"/>
<feColorMatrix type="matrix" values="0 0 0 0 0 0 0 0 0 0 0 0 0 0 0 0 0 0 0.25 0"/>
<feBlend mode="normal" in2="effect1_dropShadow_115_35" result="effect2_dropShadow_115_35"/>
<feBlend mode="normal" in="SourceGraphic" in2="effect2_dropShadow_115_35" result="shape"/>
<feColorMatrix in="SourceAlpha" type="matrix" values="0 0 0 0 0 0 0 0 0 0 0 0 0 0 0 0 0 0 127 0" result="hardAlpha"/>
<feOffset dx="-2" dy="-3"/>
<feGaussianBlur stdDeviation="2"/>
<feComposite in2="hardAlpha" operator="arithmetic" k2="-1" k3="1"/>
<feColorMatrix type="matrix" values="0 0 0 0 0 0 0 0 0 0 0 0 0 0 0 0 0 0 0.36 0"/>
<feBlend mode="normal" in2="shape" result="effect3_innerShadow_115_35"/>
</filter>
<linearGradient id="paint0_linear_115_35" x1="30" y1="55" x2="30" y2="5" gradientUnits="userSpaceOnUse">
<stop offset="0.245" stop-color="#FE455E"/>
<stop offset="1" stop-color="#EE1D32"/>
</linearGradient>
</defs>
</svg>
