<svg width="74" height="74" viewBox="0 0 74 74" fill="none" xmlns="http://www.w3.org/2000/svg">
<g filter="url(#filter0_ddi_121_55)">
<path d="M51.2464 17.3091C46.4628 8.86778 38.6622 4.32784 30.1016 5.08085C24.2422 5.59829 20.3494 7.50732 18.5354 10.7583C15.4587 16.2675 19.585 23.4661 19.7623 23.7698L20.0089 24.1947L20.5205 24.1998C20.5336 24.1998 20.732 24.2073 21.0558 24.2637C20.3169 25.5047 19.9185 26.9182 19.9185 28.3569V36.6703C19.9185 44.0052 13.6194 49.9721 5.87756 49.9721C5.39227 49.9721 5 50.344 5 50.8033C5 51.2627 5.39227 51.6346 5.87756 51.6346C14.4478 51.6346 21.4314 45.1301 21.6525 37.0607C23.7771 35.1769 26.6414 34.3591 29.5005 34.7958C29.8673 36.5214 30.1157 38.5162 30.1833 40.8493C30.5668 53.9794 37.8277 55 40.0435 55C40.391 55 40.6473 54.9756 40.7727 54.9605L40.8561 54.9613C44.9859 54.9605 48.1627 53.7228 50.2969 51.2821C54.1274 46.9003 53.3025 40.1055 53.0436 38.5103C56.2099 33.6128 55.478 24.7769 51.2464 17.3091ZM39.2247 37.881H36.5921V40.3748C36.5921 40.8341 36.1998 41.206 35.7145 41.206C35.2292 41.206 34.8369 40.8341 34.8369 40.3748V37.3518C33.4934 36.1108 31.9042 35.3031 30.2456 34.9211C30.7212 35.0305 31.1898 34.7554 31.3048 34.3094C31.4197 33.8627 31.1301 33.4134 30.6598 33.3049C28.035 32.7016 25.3637 33.0281 23.047 34.1361C24.287 32.0706 25.7384 30.5427 27.3918 29.5996C27.8077 29.3631 27.9411 28.8516 27.691 28.4587C27.4409 28.0649 26.9012 27.937 26.487 28.1751C24.6432 29.2268 23.0364 30.8767 21.6745 33.0718V28.356C21.6745 26.8138 22.2133 25.3684 23.233 24.1728C23.5384 23.8153 23.4796 23.2919 23.1031 23.0034C22.7644 22.7434 22.294 22.777 21.979 23.0404C23.412 21.4157 25.4734 20.3051 27.8174 20.0839V17.5472C27.8174 17.0878 28.2096 16.7159 28.6949 16.7159C29.1802 16.7159 29.5725 17.0878 29.5725 17.5472V20.0409H32.2052C32.6904 20.0409 33.0827 20.4128 33.0827 20.8722C33.0827 21.3316 32.6904 21.7035 32.2052 21.7035H28.6949C26.207 21.7035 24.0228 22.9394 22.7749 24.7938C23.9412 25.3078 25.3892 26.2695 26.6985 28.0523C27.6822 27.5239 28.6247 27.2177 29.4628 27.0536C31.375 26.6801 33.1169 26.9838 34.206 27.5408L36.1752 25.6755C36.5183 25.3507 37.073 25.3507 37.4161 25.6755C37.7592 26.0003 37.7592 26.5261 37.4161 26.8509L35.5548 28.6143L37.4161 30.3787C37.7592 30.7034 37.7592 31.2293 37.4161 31.554C37.245 31.7164 37.0203 31.7972 36.7957 31.7972C36.571 31.7972 36.3463 31.7164 36.1752 31.554L33.6926 29.2016C33.3021 28.8322 31.7637 28.3022 29.8173 28.6816C29.1477 28.8121 28.3957 29.0594 27.6068 29.4784C28.1543 30.467 28.651 31.6398 29.0617 33.034C31.6075 33.2645 34.1094 34.3246 36.127 36.2151H39.2247C39.71 36.2151 40.1023 36.587 40.1023 37.0464C40.1023 37.5091 39.71 37.881 39.2247 37.881ZM49.916 32.5384C49.9072 32.5552 49.9072 32.5746 49.8976 32.5914C49.8449 32.6781 49.7756 32.7471 49.6993 32.8068C49.6808 32.8219 49.6615 32.8346 49.6413 32.848C49.558 32.9044 49.4685 32.9498 49.3702 32.9751C49.3675 32.9759 49.3667 32.9776 49.364 32.9776C45.1579 34.0453 42.6533 38.157 43.7801 42.1424C43.9056 42.5858 43.6274 43.0419 43.1597 43.1605C43.0834 43.1798 43.007 43.1891 42.9315 43.1891C42.5445 43.1891 42.1891 42.9451 42.0847 42.5732C40.8596 38.2436 43.1474 33.7987 47.2807 31.9469C45.7924 30.7606 44.7226 29.1923 44.2154 27.4003C43.7073 25.6048 43.8082 23.7362 44.4743 22.0021C44.2049 22.0232 43.9363 22.0526 43.6669 22.0526C41.9952 22.0526 40.3445 21.6378 38.8588 20.8251C36.6272 19.6043 35.0309 17.6313 34.3631 15.2705C34.2376 14.8271 34.5158 14.3711 34.9835 14.2524C35.4521 14.133 35.9339 14.3972 36.0585 14.8405C36.6043 16.7731 37.911 18.3868 39.7363 19.3855C41.5617 20.3842 43.6871 20.6492 45.7292 20.1318C45.8406 20.1032 45.9574 20.0965 46.0732 20.1108C46.3031 20.1394 46.512 20.2538 46.6533 20.4288C46.7945 20.6038 46.8568 20.8251 46.827 21.0438C46.8147 21.1339 46.7787 21.2172 46.7366 21.2971C46.7278 21.3139 46.7278 21.3333 46.7182 21.3501C45.6625 23.0816 45.3755 25.0781 45.9108 26.9712C46.4462 28.8634 47.7484 30.4561 49.5755 31.4564C49.5782 31.4573 49.579 31.4598 49.5808 31.4615C49.6764 31.5153 49.7624 31.586 49.8318 31.671C49.9739 31.846 50.0362 32.0681 50.0055 32.2868C49.9932 32.3752 49.9581 32.4585 49.916 32.5384Z" fill="url(#paint0_linear_121_55)"/>
</g>
<defs>
<filter id="filter0_ddi_121_55" x="0" y="0" width="74" height="74" filterUnits="userSpaceOnUse" color-interpolation-filters="sRGB">
<feFlood flood-opacity="0" result="BackgroundImageFix"/>
<feColorMatrix in="SourceAlpha" type="matrix" values="0 0 0 0 0 0 0 0 0 0 0 0 0 0 0 0 0 0 127 0" result="hardAlpha"/>
<feOffset dx="2" dy="3"/>
<feGaussianBlur stdDeviation="2.5"/>
<feComposite in2="hardAlpha" operator="out"/>
<feColorMatrix type="matrix" values="0 0 0 0 0 0 0 0 0 0 0 0 0 0 0 0 0 0 0.25 0"/>
<feBlend mode="normal" in2="BackgroundImageFix" result="effect1_dropShadow_121_55"/>
<feColorMatrix in="SourceAlpha" type="matrix" values="0 0 0 0 0 0 0 0 0 0 0 0 0 0 0 0 0 0 127 0" result="hardAlpha"/>
<feOffset dx="7" dy="7"/>
<feGaussianBlur stdDeviation="6"/>
<feComposite in2="hardAlpha" operator="out"/>
<feColorMatrix type="matrix" values="0 0 0 0 0 0 0 0 0 0 0 0 0 0 0 0 0 0 0.25 0"/>
<feBlend mode="normal" in2="effect1_dropShadow_121_55" result="effect2_dropShadow_121_55"/>
<feBlend mode="normal" in="SourceGraphic" in2="effect2_dropShadow_121_55" result="shape"/>
<feColorMatrix in="SourceAlpha" type="matrix" values="0 0 0 0 0 0 0 0 0 0 0 0 0 0 0 0 0 0 127 0" result="hardAlpha"/>
<feOffset dx="-2" dy="-3"/>
<feGaussianBlur stdDeviation="2"/>
<feComposite in2="hardAlpha" operator="arithmetic" k2="-1" k3="1"/>
<feColorMatrix type="matrix" values="0 0 0 0 0 0 0 0 0 0 0 0 0 0 0 0 0 0 0.25 0"/>
<feBlend mode="normal" in2="shape" result="effect3_innerShadow_121_55"/>
</filter>
<linearGradient id="paint0_linear_121_55" x1="30" y1="55" x2="30" y2="5" gradientUnits="userSpaceOnUse">
<stop stop-color="#FE455E"/>
<stop offset="0.501" stop-color="#EE1D32"/>
</linearGradient>
</defs>
</svg>
