<svg width="74" height="74" viewBox="0 0 74 74" fill="none" xmlns="http://www.w3.org/2000/svg">
<g filter="url(#filter0_ddi_122_70)">
<path d="M36.4713 33.7131C36.1875 36.6861 34.736 39.3147 32.4889 40.9249C26.3951 45.2933 15.8922 52.8344 14.0162 54.2609C13.3805 54.7443 12.6847 55 12.0045 55C9.69754 55 8.14062 52.2812 8.038 48.0734C7.94459 44.2488 7.37137 41.5781 6.70781 38.4859C6.20854 36.1594 5.69417 33.764 5.28319 30.5032C4.90905 27.5366 4.09297 17.342 9.29731 10.726C12.2858 6.92664 16.7608 5 22.5985 5C22.8574 5 23.121 5.00396 23.3872 5.01158C27.1919 5.1204 30.1238 6.53863 32.35 9.34675C37.356 15.6619 37.0809 27.3236 36.4713 33.7131ZM54.3711 13.9681C51.5971 9.82102 39.3802 9.70489 39.2573 9.70489C38.3333 9.70489 38.0748 9.75183 37.8015 9.96915C37.5722 10.1514 37.3874 10.4187 37.2362 10.7857C37.1021 11.1118 37.0967 11.4925 37.2221 11.8239C39.6742 18.3003 39.5268 26.7268 39.2207 31.1729C39.1865 31.6691 39.1148 32.179 39.0081 32.6886C38.9369 33.0285 38.992 33.3882 39.1588 33.6762C39.3257 33.9645 39.5887 34.1532 39.8805 34.1947C39.9723 34.2075 40.0683 34.2145 40.1676 34.2145C42.7929 34.2145 47.2915 29.0725 48.6076 27.4967C51.279 24.2978 54.3424 19.7962 54.9282 16.7549C55.1196 15.7625 54.9266 14.799 54.3711 13.9681Z" fill="url(#paint0_linear_122_70)"/>
</g>
<defs>
<filter id="filter0_ddi_122_70" x="0" y="0" width="74" height="74" filterUnits="userSpaceOnUse" color-interpolation-filters="sRGB">
<feFlood flood-opacity="0" result="BackgroundImageFix"/>
<feColorMatrix in="SourceAlpha" type="matrix" values="0 0 0 0 0 0 0 0 0 0 0 0 0 0 0 0 0 0 127 0" result="hardAlpha"/>
<feOffset dx="2" dy="3"/>
<feGaussianBlur stdDeviation="2.5"/>
<feComposite in2="hardAlpha" operator="out"/>
<feColorMatrix type="matrix" values="0 0 0 0 0 0 0 0 0 0 0 0 0 0 0 0 0 0 0.25 0"/>
<feBlend mode="normal" in2="BackgroundImageFix" result="effect1_dropShadow_122_70"/>
<feColorMatrix in="SourceAlpha" type="matrix" values="0 0 0 0 0 0 0 0 0 0 0 0 0 0 0 0 0 0 127 0" result="hardAlpha"/>
<feOffset dx="7" dy="7"/>
<feGaussianBlur stdDeviation="6"/>
<feComposite in2="hardAlpha" operator="out"/>
<feColorMatrix type="matrix" values="0 0 0 0 0 0 0 0 0 0 0 0 0 0 0 0 0 0 0.25 0"/>
<feBlend mode="normal" in2="effect1_dropShadow_122_70" result="effect2_dropShadow_122_70"/>
<feBlend mode="normal" in="SourceGraphic" in2="effect2_dropShadow_122_70" result="shape"/>
<feColorMatrix in="SourceAlpha" type="matrix" values="0 0 0 0 0 0 0 0 0 0 0 0 0 0 0 0 0 0 127 0" result="hardAlpha"/>
<feOffset dx="-2" dy="-3"/>
<feGaussianBlur stdDeviation="2"/>
<feComposite in2="hardAlpha" operator="arithmetic" k2="-1" k3="1"/>
<feColorMatrix type="matrix" values="0 0 0 0 0 0 0 0 0 0 0 0 0 0 0 0 0 0 0.25 0"/>
<feBlend mode="normal" in2="shape" result="effect3_innerShadow_122_70"/>
</filter>
<linearGradient id="paint0_linear_122_70" x1="30" y1="55" x2="30" y2="5" gradientUnits="userSpaceOnUse">
<stop stop-color="#FE455E"/>
<stop offset="1" stop-color="#EE1D32"/>
</linearGradient>
</defs>
</svg>
