<svg width="74" height="74" viewBox="0 0 74 74" fill="none" xmlns="http://www.w3.org/2000/svg">
<g filter="url(#filter0_ddi_121_64)">
<path d="M54.277 48.121C50.9818 41.0148 50.2101 34.5513 49.5293 28.8496C49.2184 26.2432 48.9243 23.7806 48.4184 21.4561C47.1942 15.8362 44.4291 12.4226 40.1981 11.3108C39.6506 11.1663 39.0922 11.0935 38.5388 11.0935C36.4929 11.0935 34.6145 12.109 33.3353 13.7017V8.6363V5H26.6684V8.6363V13.7008C25.3892 12.1081 23.5108 11.0926 21.4648 11.0926C20.9107 11.0926 20.3531 11.1653 19.8065 11.3099C15.5746 12.4226 12.8095 15.8362 11.5853 21.4552C11.0719 23.8124 10.7753 26.4178 10.4611 29.1759C9.77606 35.1849 9.0002 41.9948 5.72673 49.0556C4.8992 50.8392 4.78003 52.2064 5.36089 53.2382C6.23342 54.7864 8.41434 55 10.6403 55C11.4336 55 12.2812 54.97 13.1495 54.9391L13.6712 54.92C22.7632 54.6055 27.8251 51.4019 29.1468 45.1247C29.7277 42.3657 29.2735 38.6748 28.8351 35.1067C28.5776 33.014 28.3343 31.0386 28.3343 29.4668C28.3343 28.4678 29.0793 27.656 30.0077 27.656C30.9227 27.656 31.6677 28.4687 31.6677 29.4668C31.6677 31.0386 31.4244 33.014 31.1669 35.1067C30.7285 38.6748 30.2744 42.3648 30.8552 45.1247C32.1736 51.3846 37.2355 54.58 46.3317 54.8945C46.8075 54.9118 47.28 54.9209 47.7417 54.9209C50.3235 54.9209 53.4328 54.6609 54.5745 52.6346C55.2287 51.4755 55.1278 49.9574 54.277 48.121ZM10.8344 50.4537C10.3744 50.4537 10.0011 50.0474 10.0011 49.5446C10.0011 49.0419 10.3744 48.6356 10.8344 48.6356C11.2936 48.6356 11.6678 48.2283 11.6678 47.7265C11.6678 47.2238 12.0411 46.8174 12.5012 46.8174C12.9612 46.8174 13.3345 47.2238 13.3345 47.7265C13.3345 49.2301 12.2128 50.4537 10.8344 50.4537ZM31.6686 12.2726H28.3351V10.4544H31.6686V12.2726ZM31.6686 14.0907V15.9089H28.3351V14.0907H31.6686ZM29.6818 19.4316C29.621 19.4188 29.5643 19.3952 29.5068 19.3752C29.466 19.3616 29.4235 19.3516 29.3843 19.3343C29.3068 19.2997 29.2335 19.2561 29.1626 19.2097C29.1468 19.1997 29.1293 19.1925 29.1135 19.1816C29.036 19.1279 28.9643 19.0661 28.8968 18.9988C28.8893 18.9916 28.8801 18.9852 28.8726 18.9779C28.811 18.9152 28.756 18.8452 28.7035 18.7734C28.691 18.757 28.6768 18.7425 28.6651 18.7252C28.6293 18.6725 28.6001 18.6134 28.5693 18.5561C28.5451 18.5107 28.5168 18.467 28.496 18.4188C28.486 18.397 28.4801 18.3734 28.4718 18.3507C28.4385 18.2652 28.4085 18.1789 28.3876 18.0879C28.3868 18.0834 28.3851 18.0798 28.3843 18.0752C28.3668 17.9961 28.3601 17.9125 28.3526 17.8298C28.3493 17.7943 28.3443 17.7607 28.3426 17.7252H31.6652C31.6644 17.7607 31.6586 17.7952 31.6552 17.8298C31.6477 17.9125 31.6411 17.9961 31.6236 18.0752C31.6227 18.0798 31.6211 18.0834 31.6202 18.0879C31.5994 18.1789 31.5694 18.2652 31.5361 18.3507C31.5269 18.3725 31.5211 18.397 31.5119 18.4188C31.4911 18.467 31.4636 18.5107 31.4386 18.5561C31.4077 18.6134 31.3786 18.6725 31.3427 18.7252C31.3311 18.7425 31.3169 18.757 31.3044 18.7734C31.2511 18.8452 31.1961 18.9152 31.1352 18.9779C31.1277 18.9852 31.1186 18.9916 31.1111 18.9988C31.0427 19.0652 30.9711 19.1279 30.8944 19.1816C30.8785 19.1925 30.861 19.1997 30.8452 19.2097C30.7735 19.2561 30.701 19.2997 30.6235 19.3343C30.5844 19.3516 30.5419 19.3606 30.501 19.3752C30.4427 19.3952 30.386 19.4188 30.326 19.4316C30.2219 19.4534 30.1152 19.4661 30.006 19.4661C29.8968 19.4661 29.7852 19.4543 29.6818 19.4316ZM28.3351 6.81815H31.6686V8.6363H28.3351V6.81815ZM14.1679 24.9996C14.1679 24.4969 14.5412 24.0906 15.0013 24.0906C15.4613 24.0906 15.8346 24.4969 15.8346 24.9996C15.8346 25.5014 16.2088 25.9087 16.668 25.9087C17.128 25.9087 17.5014 26.3151 17.5014 26.8178C17.5014 27.3205 17.128 27.7269 16.668 27.7269C15.2896 27.7269 14.1679 26.5032 14.1679 24.9996ZM21.6682 47.7265C20.2898 47.7265 19.1681 46.5029 19.1681 44.9993C19.1681 44.4966 19.5414 44.0902 20.0015 44.0902C20.4615 44.0902 20.8348 44.4966 20.8348 44.9993C20.8348 45.5011 21.209 45.9083 21.6682 45.9083C22.1282 45.9083 22.5016 46.3147 22.5016 46.8174C22.5016 47.3201 22.1282 47.7265 21.6682 47.7265ZM22.5016 35.9085C22.0415 35.9085 21.6682 35.5022 21.6682 34.9995C21.6682 34.4967 22.0415 34.0904 22.5016 34.0904C22.9607 34.0904 23.3349 33.6831 23.3349 33.1813C23.3349 32.6786 23.7083 32.2722 24.1683 32.2722C24.6283 32.2722 25.0017 32.6786 25.0017 33.1813C25.0017 34.6849 23.8799 35.9085 22.5016 35.9085ZM35.002 33.1813C35.002 32.6786 35.3754 32.2722 35.8354 32.2722C36.2954 32.2722 36.6688 32.6786 36.6688 33.1813C36.6688 33.6831 37.043 34.0904 37.5021 34.0904C37.9622 34.0904 38.3355 34.4967 38.3355 34.9995C38.3355 35.5022 37.9622 35.9085 37.5021 35.9085C36.1238 35.9085 35.002 34.6849 35.002 33.1813ZM38.3355 47.7265C37.8755 47.7265 37.5021 47.3201 37.5021 46.8174C37.5021 46.3147 37.8755 45.9083 38.3355 45.9083C38.7947 45.9083 39.1689 45.5011 39.1689 44.9993C39.1689 44.4966 39.5422 44.0902 40.0022 44.0902C40.4623 44.0902 40.8356 44.4966 40.8356 44.9993C40.8356 46.5029 39.7139 47.7265 38.3355 47.7265ZM43.3357 40.4539C42.8757 40.4539 42.5023 40.0475 42.5023 39.5448C42.5023 31.0232 36.8946 24.0906 30.0018 24.0906C23.1091 24.0906 17.5014 31.0232 17.5014 39.5448C17.5014 40.0475 17.128 40.4539 16.668 40.4539C16.208 40.4539 15.8346 40.0475 15.8346 39.5448C15.8346 32.1013 19.7248 25.7605 25.15 23.3378C21.5782 22.1615 19.1681 19.717 19.1681 16.818C19.1681 16.3152 19.5414 15.9089 20.0015 15.9089C20.4615 15.9089 20.8348 16.3152 20.8348 16.818C20.8348 19.7743 25.0333 22.2724 30.0018 22.2724C34.9704 22.2724 39.1689 19.7743 39.1689 16.818C39.1689 16.3152 39.5422 15.9089 40.0022 15.9089C40.4623 15.9089 40.8356 16.3152 40.8356 16.818C40.8356 19.717 38.4255 22.1615 34.8537 23.3378C40.2798 25.7605 44.1691 32.1013 44.1691 39.5448C44.1691 40.0475 43.7957 40.4539 43.3357 40.4539ZM43.3357 27.7269C42.8757 27.7269 42.5023 27.3205 42.5023 26.8178C42.5023 26.3151 42.8757 25.9087 43.3357 25.9087C43.7949 25.9087 44.1691 25.5014 44.1691 24.9996C44.1691 24.4969 44.5416 24.0906 45.0024 24.0906C45.4633 24.0906 45.8358 24.4969 45.8358 24.9996C45.8358 26.5032 44.7141 27.7269 43.3357 27.7269ZM49.1693 50.4537C47.7909 50.4537 46.6692 49.2301 46.6692 47.7265C46.6692 47.2238 47.0417 46.8174 47.5025 46.8174C47.9634 46.8174 48.3359 47.2238 48.3359 47.7265C48.3359 48.2283 48.7092 48.6356 49.1693 48.6356C49.6301 48.6356 50.0026 49.0419 50.0026 49.5446C50.0026 50.0474 49.6301 50.4537 49.1693 50.4537Z" fill="url(#paint0_linear_121_64)"/>
</g>
<defs>
<filter id="filter0_ddi_121_64" x="0" y="0" width="74" height="74" filterUnits="userSpaceOnUse" color-interpolation-filters="sRGB">
<feFlood flood-opacity="0" result="BackgroundImageFix"/>
<feColorMatrix in="SourceAlpha" type="matrix" values="0 0 0 0 0 0 0 0 0 0 0 0 0 0 0 0 0 0 127 0" result="hardAlpha"/>
<feOffset dx="2" dy="3"/>
<feGaussianBlur stdDeviation="2.5"/>
<feComposite in2="hardAlpha" operator="out"/>
<feColorMatrix type="matrix" values="0 0 0 0 0 0 0 0 0 0 0 0 0 0 0 0 0 0 0.25 0"/>
<feBlend mode="normal" in2="BackgroundImageFix" result="effect1_dropShadow_121_64"/>
<feColorMatrix in="SourceAlpha" type="matrix" values="0 0 0 0 0 0 0 0 0 0 0 0 0 0 0 0 0 0 127 0" result="hardAlpha"/>
<feOffset dx="7" dy="7"/>
<feGaussianBlur stdDeviation="6"/>
<feComposite in2="hardAlpha" operator="out"/>
<feColorMatrix type="matrix" values="0 0 0 0 0 0 0 0 0 0 0 0 0 0 0 0 0 0 0.25 0"/>
<feBlend mode="normal" in2="effect1_dropShadow_121_64" result="effect2_dropShadow_121_64"/>
<feBlend mode="normal" in="SourceGraphic" in2="effect2_dropShadow_121_64" result="shape"/>
<feColorMatrix in="SourceAlpha" type="matrix" values="0 0 0 0 0 0 0 0 0 0 0 0 0 0 0 0 0 0 127 0" result="hardAlpha"/>
<feOffset dx="-2" dy="-3"/>
<feGaussianBlur stdDeviation="2"/>
<feComposite in2="hardAlpha" operator="arithmetic" k2="-1" k3="1"/>
<feColorMatrix type="matrix" values="0 0 0 0 0 0 0 0 0 0 0 0 0 0 0 0 0 0 0.25 0"/>
<feBlend mode="normal" in2="shape" result="effect3_innerShadow_121_64"/>
</filter>
<linearGradient id="paint0_linear_121_64" x1="30" y1="55" x2="30" y2="5" gradientUnits="userSpaceOnUse">
<stop stop-color="#FE455E"/>
<stop offset="1" stop-color="#EE1D32"/>
</linearGradient>
</defs>
</svg>
