<svg width="74" height="74" viewBox="0 0 74 74" fill="none" xmlns="http://www.w3.org/2000/svg">
<g filter="url(#filter0_ddi_123_118)">
<path d="M54.4948 36.4206C53.5096 35.8126 51.4863 34.4171 49.8779 32.9182C51.5215 31.7428 53.402 30.6502 53.7994 30.455C54.2932 30.2124 54.5158 29.5726 54.2969 29.0259C54.0776 28.4791 53.4998 28.2324 53.0061 28.4752C52.4174 28.7645 49.6391 30.3925 47.7531 31.8996H44.3906C43.2834 31.8996 42.1883 31.6442 41.1752 31.1497C38.3558 29.7734 36.6664 26.5342 36.9996 23.1429C37.1219 21.8975 37.4846 20.6957 38.0629 19.6189L39.1769 17.5444C41.918 17.1401 44.5598 16.016 46.8371 14.2784C47.2643 13.9525 47.4356 13.3188 47.1791 12.8193C46.8908 12.258 46.2377 12.1027 45.7695 12.4623C44.5977 13.3629 42.8137 14.4559 40.5055 15.0708L42.1564 11.9968C42.4176 11.5107 42.3305 10.8651 41.9185 10.5303C41.4461 10.1465 40.7898 10.3037 40.4971 10.8484L36.2892 18.6829C35.7373 19.7106 35.0037 20.6042 34.1322 21.3104C31.6461 23.3252 28.2673 23.3252 25.7812 21.3104C24.8808 20.5807 24.1316 19.6461 23.5843 18.5693L21.4974 14.4643C21.8636 11.9473 21.3816 7.51489 20.9347 5.82055C20.7871 5.26118 20.2734 4.8936 19.7611 5.02766C19.2074 5.17253 18.8863 5.80066 19.048 6.39463C19.4351 7.81609 19.779 11.2906 19.6371 13.4301C18.1777 12.9748 16.7579 12.3045 15.8941 11.6519C15.4781 11.3377 14.9029 11.3844 14.572 11.8048C14.182 12.3006 14.2757 13.0461 14.7503 13.4098C15.9222 14.308 18.4999 15.3772 19.8951 15.7286L21.9189 19.7095C22.457 20.7677 22.7955 21.936 22.9142 23.1431C23.2474 26.5342 21.558 29.7736 18.7386 31.1499C17.7255 31.6444 16.6304 31.8998 15.5232 31.8998H13.0812C11.4439 29.3081 10.9134 28.4194 10.9081 28.4104C10.6107 27.9111 10.0042 27.7727 9.55304 28.1018C9.10187 28.4309 8.97707 29.1023 9.27414 29.6015C9.29269 29.6327 9.65129 30.2338 10.6962 31.8996H6.02022C5.50929 31.8996 5.05303 32.313 5.0046 32.8762C4.94893 33.5221 5.40616 34.0655 5.97823 34.0655H10.4253C9.36847 35.2904 8.00128 36.6894 6.78917 37.6578C6.39874 37.9698 6.2796 38.5545 6.52159 39.0155L6.53976 39.0501C6.83429 39.6116 7.49484 39.7662 7.96378 39.3887C9.81808 37.8959 11.9284 35.5734 13.0447 34.0655H15.5257C16.6322 34.0655 17.7267 34.3206 18.739 34.8149C21.5582 36.191 23.2476 39.4302 22.9144 42.8213C22.7955 44.0317 22.457 45.2032 21.9191 46.2655L19.9808 50.0927C16.8136 50.58 13.8761 52.6469 13.746 52.7395C13.2915 53.0629 13.1683 53.727 13.4519 54.236C13.8197 54.8963 14.5406 54.7378 14.8036 54.5616C14.9562 54.4595 16.5824 53.3094 18.7035 52.6151L18.3234 53.3894C18.0656 53.9041 18.2257 54.5525 18.6841 54.8505C19.1578 55.1584 19.7675 54.9748 20.0351 54.4437L21.4443 51.6315L23.5923 47.3899C24.1367 46.315 24.8834 45.3818 25.7814 44.654C28.2675 42.639 31.6463 42.639 34.1324 44.654C35.1703 45.4951 36.0138 46.5957 36.5947 47.866L39.5853 54.407C39.8299 54.9404 40.4187 55.1532 40.9004 54.8825C41.382 54.6118 41.5744 53.9601 41.3299 53.4266L39.5975 49.6248C40.9986 49.9727 42.9125 50.6525 44.3174 51.883C44.7615 52.272 45.4 52.0839 45.6924 51.7154C46.0488 51.2659 45.9627 50.5671 45.541 50.1932C43.185 48.1021 39.8023 47.3992 38.484 47.1959L37.7367 45.5662C37.3433 44.708 37.0935 43.7781 36.9994 42.8215C36.6662 39.4304 38.3555 36.1912 41.1748 34.8151C42.1873 34.3208 43.2816 34.0657 44.3883 34.0657H48.091C49.8938 35.8688 52.3899 37.5973 53.5418 38.3126C54.0047 38.5999 54.6297 38.3593 54.8727 37.8939C55.1432 37.3761 54.9666 36.7119 54.4948 36.4206ZM26.6962 35.9907C24.8955 35.9907 23.4355 34.6439 23.4355 32.9826C23.4355 31.3214 24.8953 29.9745 26.6962 29.9745C28.497 29.9745 29.957 31.3214 29.957 32.9826C29.957 34.6439 28.497 35.9907 26.6962 35.9907Z" fill="url(#paint0_linear_123_118)"/>
</g>
<defs>
<filter id="filter0_ddi_123_118" x="0" y="0" width="74" height="74" filterUnits="userSpaceOnUse" color-interpolation-filters="sRGB">
<feFlood flood-opacity="0" result="BackgroundImageFix"/>
<feColorMatrix in="SourceAlpha" type="matrix" values="0 0 0 0 0 0 0 0 0 0 0 0 0 0 0 0 0 0 127 0" result="hardAlpha"/>
<feOffset dx="2" dy="3"/>
<feGaussianBlur stdDeviation="2.5"/>
<feComposite in2="hardAlpha" operator="out"/>
<feColorMatrix type="matrix" values="0 0 0 0 0 0 0 0 0 0 0 0 0 0 0 0 0 0 0.25 0"/>
<feBlend mode="normal" in2="BackgroundImageFix" result="effect1_dropShadow_123_118"/>
<feColorMatrix in="SourceAlpha" type="matrix" values="0 0 0 0 0 0 0 0 0 0 0 0 0 0 0 0 0 0 127 0" result="hardAlpha"/>
<feOffset dx="7" dy="7"/>
<feGaussianBlur stdDeviation="6"/>
<feComposite in2="hardAlpha" operator="out"/>
<feColorMatrix type="matrix" values="0 0 0 0 0 0 0 0 0 0 0 0 0 0 0 0 0 0 0.25 0"/>
<feBlend mode="normal" in2="effect1_dropShadow_123_118" result="effect2_dropShadow_123_118"/>
<feBlend mode="normal" in="SourceGraphic" in2="effect2_dropShadow_123_118" result="shape"/>
<feColorMatrix in="SourceAlpha" type="matrix" values="0 0 0 0 0 0 0 0 0 0 0 0 0 0 0 0 0 0 127 0" result="hardAlpha"/>
<feOffset dx="-2" dy="-3"/>
<feGaussianBlur stdDeviation="2"/>
<feComposite in2="hardAlpha" operator="arithmetic" k2="-1" k3="1"/>
<feColorMatrix type="matrix" values="0 0 0 0 0 0 0 0 0 0 0 0 0 0 0 0 0 0 0.25 0"/>
<feBlend mode="normal" in2="shape" result="effect3_innerShadow_123_118"/>
</filter>
<linearGradient id="paint0_linear_123_118" x1="30" y1="5" x2="30" y2="55" gradientUnits="userSpaceOnUse">
<stop stop-color="#FE455E"/>
<stop offset="1" stop-color="#EE1D32"/>
</linearGradient>
</defs>
</svg>
