<svg width="74" height="74" viewBox="0 0 74 74" fill="none" xmlns="http://www.w3.org/2000/svg">
<g filter="url(#filter0_ddi_122_82)">
<path d="M45.5952 5.00055C43.0644 5.00055 41.1704 6.80353 39.5008 8.39251L39.162 8.7138C37.0536 10.7185 34.6632 12.9892 30.0008 12.9892C25.3344 12.9892 22.9416 10.7127 20.8304 8.70506L20.4992 8.38901C18.8296 6.80178 16.936 4.99997 14.4072 4.99997C9.2196 5.00055 5 11.153 5 18.7147C5 22.7942 6.2336 26.6345 8.386 29.2533C8.5148 29.4107 8.6584 29.5326 8.8076 29.6335C9.1316 31.03 9.7844 32.191 10.6768 32.9281C11.2984 33.4418 12.0028 33.7141 12.7132 33.7141C13.7264 33.7141 14.698 33.1701 15.4484 32.1828C15.6928 31.8616 15.862 31.4254 15.9248 30.9542C16.0408 30.0813 16.0192 29.1623 15.8628 28.2993C15.5768 26.729 14.8836 25.4205 13.9096 24.6158C13.2868 24.0998 12.5812 23.8251 11.8692 23.8251C11.3704 23.8251 10.882 23.9587 10.426 24.2111C9.9944 23.4397 8.9028 21.2349 8.9028 18.7147C8.9028 14.2889 11.372 10.6888 14.4072 10.6888C15.4648 10.6888 16.4328 11.3728 17.5588 12.3985C19.6384 14.3262 19.8352 15.9887 20.2268 19.3008C20.4812 21.4536 20.798 24.133 21.758 27.2952C22.8448 30.879 24.2128 33.3491 25.422 35.5276C27.0032 38.3807 28.0468 40.2642 28.0468 43.5803V52.155C28.0468 53.7241 28.924 55 30 55C31.076 55 31.9532 53.7241 31.9532 52.155V43.5803C31.9532 40.2636 32.9988 38.3784 34.5812 35.5247C35.7888 33.3473 37.1564 30.879 38.244 27.297C39.2036 24.1348 39.5196 21.4565 39.7736 19.3048C40.1648 15.9957 40.362 14.3344 42.4288 12.4136C43.5628 11.3798 44.5348 10.69 45.5952 10.69C48.6288 10.69 51.0972 14.2901 51.0972 18.7159C51.0972 20.8075 50.5536 22.7551 49.572 24.2496C49.0968 23.9738 48.5856 23.8257 48.0636 23.8257C47.3524 23.8257 46.6464 24.1009 46.024 24.6152C45.0496 25.4205 44.3564 26.7296 44.0704 28.2999C43.9136 29.1635 43.8924 30.0819 44.0084 30.9548C44.0708 31.4254 44.24 31.8627 44.484 32.1823C45.2356 33.1706 46.2068 33.7147 47.22 33.7147C47.93 33.7147 48.6348 33.4424 49.2564 32.9286C50.1388 32.1986 50.788 31.0557 51.1156 29.679C51.2928 29.5705 51.4616 29.4387 51.612 29.2545C53.7652 26.6427 55 22.8018 55 18.7147C55 11.153 50.7808 5.00055 45.5952 5.00055Z" fill="url(#paint0_linear_122_82)"/>
</g>
<defs>
<filter id="filter0_ddi_122_82" x="0" y="-3.05176e-05" width="74" height="74" filterUnits="userSpaceOnUse" color-interpolation-filters="sRGB">
<feFlood flood-opacity="0" result="BackgroundImageFix"/>
<feColorMatrix in="SourceAlpha" type="matrix" values="0 0 0 0 0 0 0 0 0 0 0 0 0 0 0 0 0 0 127 0" result="hardAlpha"/>
<feOffset dx="2" dy="3"/>
<feGaussianBlur stdDeviation="2.5"/>
<feComposite in2="hardAlpha" operator="out"/>
<feColorMatrix type="matrix" values="0 0 0 0 0 0 0 0 0 0 0 0 0 0 0 0 0 0 0.25 0"/>
<feBlend mode="normal" in2="BackgroundImageFix" result="effect1_dropShadow_122_82"/>
<feColorMatrix in="SourceAlpha" type="matrix" values="0 0 0 0 0 0 0 0 0 0 0 0 0 0 0 0 0 0 127 0" result="hardAlpha"/>
<feOffset dx="7" dy="7"/>
<feGaussianBlur stdDeviation="6"/>
<feComposite in2="hardAlpha" operator="out"/>
<feColorMatrix type="matrix" values="0 0 0 0 0 0 0 0 0 0 0 0 0 0 0 0 0 0 0.25 0"/>
<feBlend mode="normal" in2="effect1_dropShadow_122_82" result="effect2_dropShadow_122_82"/>
<feBlend mode="normal" in="SourceGraphic" in2="effect2_dropShadow_122_82" result="shape"/>
<feColorMatrix in="SourceAlpha" type="matrix" values="0 0 0 0 0 0 0 0 0 0 0 0 0 0 0 0 0 0 127 0" result="hardAlpha"/>
<feOffset dx="-2" dy="-3"/>
<feGaussianBlur stdDeviation="2"/>
<feComposite in2="hardAlpha" operator="arithmetic" k2="-1" k3="1"/>
<feColorMatrix type="matrix" values="0 0 0 0 0 0 0 0 0 0 0 0 0 0 0 0 0 0 0.25 0"/>
<feBlend mode="normal" in2="shape" result="effect3_innerShadow_122_82"/>
</filter>
<linearGradient id="paint0_linear_122_82" x1="5" y1="30" x2="55" y2="30" gradientUnits="userSpaceOnUse">
<stop stop-color="#FE455E"/>
<stop offset="1" stop-color="#EE1D32"/>
</linearGradient>
</defs>
</svg>
